# xmcd
#
# Track frame offsets: 
#        183
#        11538
#        23653
#        36900
#        50110
#        62885
#        77155
#        89703
#        102418
#        116450
#        128408
#        140985
#        154830
#        168038
#        181133
#        195250
#
# Disc length: 2767 seconds
#
# Revision: 0
# Processed by: cddbd v1.4PL0 Copyright (c) Steve Scherf et al.
# Submitted via: ExactAudioCopy v0.90b4
#
DISCID=d10acd10
DTITLE=Muddy Waters - Rock Me-Charly Blues Masterworks Vol. 10
DYEAR=1992
DGENRE=Blues
TTITLE0=Sugar Sweet
TTITLE1=Trouble No More
TTITLE2=All Aboard
TTITLE3=Don't Go No Further
TTITLE4=I Love The Life I Live, I Live The Life I Love
TTITLE5=Rock Me
TTITLE6=Got My Mojo Working
TTITLE7=She's Got It
TTITLE8=Close To You
TTITLE9=Walking In The Park
TTITLE10=Mean Mistreater
TTITLE11=Lonesome Road Blues
TTITLE12=Mopper's Blues
TTITLE13=Southbound Train
TTITLE14=Take The Bitter With The Sweet
TTITLE15=She's Into Something
EXTD=
EXTT0=
EXTT1=
EXTT2=
EXTT3=
EXTT4=
EXTT5=
EXTT6=
EXTT7=
EXTT8=
EXTT9=
EXTT10=
EXTT11=
EXTT12=
EXTT13=
EXTT14=
EXTT15=
PLAYORDER=
